<?xml version="1.0" encoding="UTF-8" standalone="no"?>
<!-- Created with Inkscape (http://www.inkscape.org/) -->

<svg
   xmlns:dc="http://purl.org/dc/elements/1.1/"
   xmlns:cc="http://creativecommons.org/ns#"
   xmlns:rdf="http://www.w3.org/1999/02/22-rdf-syntax-ns#"
   xmlns:svg="http://www.w3.org/2000/svg"
   xmlns="http://www.w3.org/2000/svg"
   xmlns:sodipodi="http://sodipodi.sourceforge.net/DTD/sodipodi-0.dtd"
   xmlns:inkscape="http://www.inkscape.org/namespaces/inkscape"
   width="302"
   height="191.24104"
   viewBox="0 0 79.904166 50.599192"
   version="1.1"
   id="svg3831"
   inkscape:version="0.92.0 r15299"
   sodipodi:docname="wella professional.svg">
  <defs
     id="defs3825" />
  <sodipodi:namedview
     id="base"
     pagecolor="#ffffff"
     bordercolor="#666666"
     borderopacity="1.0"
     inkscape:pageopacity="0.0"
     inkscape:pageshadow="2"
     inkscape:zoom="0.35"
     inkscape:cx="458"
     inkscape:cy="288.66675"
     inkscape:document-units="mm"
     inkscape:current-layer="layer1"
     showgrid="false"
     fit-margin-top="0"
     fit-margin-left="0"
     fit-margin-right="0"
     fit-margin-bottom="0"
     units="px"
     inkscape:window-width="1280"
     inkscape:window-height="744"
     inkscape:window-x="-4"
     inkscape:window-y="-4"
     inkscape:window-maximized="1" />
  <metadata
     id="metadata3828">
    <rdf:RDF>
      <cc:Work
         rdf:about="">
        <dc:format>image/svg+xml</dc:format>
        <dc:type
           rdf:resource="http://purl.org/dc/dcmitype/StillImage" />
        <dc:title></dc:title>
      </cc:Work>
    </rdf:RDF>
  </metadata>
  <g
     inkscape:label="Layer 1"
     inkscape:groupmode="layer"
     id="layer1"
     transform="translate(144.61369,-174.61056)">
    <g
       id="g4007"
       transform="matrix(0.32778469,0,0,0.32778469,-96.946953,151.12487)"
       style="stroke-width:3.05078316">
      <path
         id="path3835"
         d="m -78.725386,72.456946 h 6.875639 l 0.560916,0.331611 c -2.465916,0.01764 -4.931833,-0.09172 -7.394222,0.05644 z"
         inkscape:connector-curvature="0"
         style="fill:#f9aebf;stroke-width:1.07624853" />
      <path
         id="path3837"
         d="m -92.145052,79.703001 c 3.266722,-4.049888 8.396111,-6.219472 13.461999,-6.857999 2.462389,-0.148167 4.928306,-0.03881 7.394222,-0.05644 4.526139,0.694972 8.865306,2.307167 12.8905,4.462639 11.680472,6.240639 21.385389,15.599833 33.242249,21.544138 6.462889,3.199701 13.719528,5.393971 20.9938056,4.483811 4.7730832,-0.55386 9.1969164,-2.54707 13.4937497,-4.582588 4.9318327,-2.338917 9.9871387,-4.448528 15.2329437,-5.983111 3.601861,-1.019528 7.358945,-1.837973 11.123083,-1.411112 4.346223,0.41275 8.565445,2.769306 10.862028,6.5405 0.956028,1.61925 1.781528,3.485441 1.513417,5.411611 l -0.430389,0.10936 c -1.488722,-1.1677 -2.677584,-2.71286 -4.363861,-3.626554 -3.33375,-2.049639 -7.468306,-1.876778 -11.165417,-1.11125 -6.194777,1.308806 -12.012083,3.905244 -17.769416,6.469944 -7.1366942,3.175 -14.47799963,6.50522 -22.4049161,6.84388 -8.3996389,0.45156 -16.5276389,-2.73755 -23.5338049,-7.14022 -6.925028,-4.27919 -13.589,-8.964076 -20.242389,-13.648965 -3.531305,-2.490611 -7.037916,-5.04825 -10.84086,-7.115528 -3.820584,-2.035527 -8.057445,-3.566583 -12.442472,-3.450166 -4.512028,-0.116417 -9.313334,1.051278 -12.640028,4.261555 -1.421694,1.298222 -2.197805,3.220861 -3.919361,4.201584 -3.118555,1.982611 -6.088944,4.582583 -7.450666,8.11036 -1.178275,2.98802 -0.289278,6.59341 -2.296585,9.27452 -3.0233,3.48545 -7.02028,5.89492 -10.65389,8.66423 0.57503,1.67569 2.24367,2.44475 3.29495,3.73591 0.9913,1.69686 -0.20109,3.47839 -1.20298,4.82953 0.0494,1.29117 1.68275,1.6263 2.35656,2.56469 -0.508,1.05482 -1.64747,1.70039 -1.94381,2.89984 0.52917,0.6738 1.28059,1.30527 1.32292,2.22955 -0.20814,1.38289 -1.2453,2.48003 -1.44992,3.86997 -0.24341,1.11125 0.06,2.54706 1.23473,2.99862 1.78858,0.61383 3.70416,0.23283 5.54214,0.10936 4.162773,-0.28575 8.357301,-0.52564 12.513023,-0.0564 4.102806,0.49389 8.459611,1.62278 11.362972,4.75545 2.8575,3.20675 4.34975,7.5565 4.462639,11.81452 -0.183444,0.0141 -0.550333,0.0459 -0.733778,0.06 -1.245305,-1.4217 -1.8415,-3.29848 -3.019777,-4.78367 -2.504723,-3.78883 -6.808611,-6.05719 -11.221861,-6.75922 -7.030861,-1.19239 -14.104058,0.53269 -21.159608,0.37394 -2.04259,-0.0705 -4.39209,-0.69144 -5.42573,-2.63172 -1.30527,-2.39536 -0.508,-5.16819 0.004,-7.66233 0.48684,-1.50284 -1.6898,-2.06375 -1.48872,-3.4925 0.20108,-1.33703 1.40053,-2.16959 2.37419,-2.95981 -0.70555,-0.77611 -1.69333,-1.49578 -1.75683,-2.63525 -0.49742,-1.82386 2.26483,-2.43417 1.83092,-4.27214 -0.70909,-1.37583 -2.27189,-2.08139 -2.99156,-3.47133 -0.71966,-1.09008 -1.04775,-2.86103 0.18345,-3.71828 3.09739,-2.08491 6.28297,-4.064 9.21808,-6.38528 0.76553,-0.63147 1.54517,-1.29469 2.02494,-2.17663 0.60325,-1.12889 0.6985,-2.43064 0.95956,-3.66537 0.64911,-3.249074 1.48167,-6.558129 3.29847,-9.376824 1.5487,-2.427111 3.915836,-4.183944 6.360586,-5.626805 0.723194,-0.448028 1.605138,-0.850195 1.852083,-1.742722 0.546805,-1.485195 1.097139,-3.002139 2.144889,-4.219223 z"
         inkscape:connector-curvature="0"
         style="fill:#9f2340;stroke-width:1.07624853" />
      <path
         id="path3839"
         d="m -72.953942,91.263529 c 4.064,-0.797278 8.276167,0.183444 11.927417,2.021417 5.235222,2.614083 9.55675,6.632222 14.125222,10.216444 5.986638,4.74839 12.262555,9.18633 19.067638,12.68942 4.515556,2.30011 9.345083,4.10633 14.407444,4.68136 4.3321113,0.6985 8.7841668,0.44097 13.02808338,-0.66323 8.20913872,-2.12372 15.93144362,-5.71147 23.67844362,-9.08402 4.875389,-1.97909 9.923639,-3.65125 15.155333,-4.36386 4.265084,-0.58914 8.844139,-0.0741 12.555361,2.23308 3.467806,2.14136 5.545667,6.04661 6.085417,10.01183 0.05997,0.59972 0.08819,1.46756 -0.620889,1.69686 -1.326445,-1.34055 -2.310695,-3.01977 -3.884083,-4.12044 -3.513667,-2.82222 -8.339667,-3.1115 -12.615334,-2.31422 -8.847666,1.61219 -16.852194,5.9055 -25.057805,9.3733 -8.3184993,3.40784 -17.0779714,6.29709 -26.151416,6.38175 -4.836583,0.0176 -9.651999,-1.00894 -14.093472,-2.91747 -4.046361,-1.73567 -8.036277,-3.70417 -11.53936,-6.40292 -7.186084,-5.45394 -13.197417,-12.23786 -19.97075,-18.16805 -4.480278,-3.982862 -9.994194,-7.408334 -16.157222,-7.567084 -2.003778,-0.116417 -3.951111,0.596194 -5.933722,0.550333 -0.790222,0.07408 -0.536222,-0.991306 -0.123472,-1.262945 1.668639,-1.583972 3.8735,-2.547055 6.117166,-2.991555 z"
         inkscape:connector-curvature="0"
         style="fill:#9f2240;stroke-width:1.07624853" />
      <path
         id="path3841"
         d="m -62.942108,112.89233 c 3.347861,-0.68438 6.671027,0.77964 9.503833,2.44123 4.660194,2.9845 8.561916,6.95677 12.657666,10.6433 4.656667,4.20864 9.860139,7.94808 15.751527,10.21997 8.113889,3.23498 17.1979168,3.31964 25.62577769,1.32292 8.80533311,-2.11314 17.01447231,-6.04308 25.33297131,-9.51442 6.071306,-2.44475 12.347222,-4.6108 18.887722,-5.334 4.377972,-0.50447 9.119306,0.004 12.819944,2.58234 3.612445,2.45533 5.817306,6.74511 5.983111,11.07722 0.208139,0.75494 -0.769055,1.84503 -1.273527,0.85725 -1.735667,-2.89278 -4.328584,-5.38339 -7.634111,-6.33236 -5.337528,-1.59809 -10.996083,-0.30692 -16.167806,1.31233 -8.244416,2.76225 -15.896166,6.98853 -24.013582,10.08239 -8.0856669,3.17147 -16.6969723,5.34106 -25.435278,5.11881 -4.282722,-0.14817 -8.643055,-0.4692 -12.696472,-1.97203 -5.976055,-2.16253 -11.235972,-5.90197 -16.001999,-10.04006 -4.727222,-4.07811 -8.85825,-8.77005 -13.197417,-13.24328 -2.268361,-2.3495 -4.762499,-4.47322 -7.422444,-6.36763 -1.135944,-0.85725 -2.578805,-1.1042 -3.795889,-1.79211 -0.250472,-0.6597 0.596195,-0.92428 1.075973,-1.06187 z"
         inkscape:connector-curvature="0"
         style="fill:#9f2240;stroke-width:1.07624853" />
      <path
         id="path3843"
         d="m -144.61369,161.09236 c 2.78342,-0.0176 5.56683,-0.0212 8.35025,0 3.00919,9.39094 5.91608,18.81717 9.04169,28.16931 2.89278,-8.01159 5.79262,-16.01964 8.69598,-24.0277 0.508,-1.44639 1.35113,-2.91041 2.81869,-3.54541 1.93322,-0.0317 3.86292,0.0318 5.79614,-0.0247 1.19944,0.20461 2.07433,1.19239 2.49061,2.28953 3.09739,8.4208 5.95136,16.93686 9.122833,25.33297 3.107973,-9.38742 6.226528,-18.77483 9.295695,-28.17636 2.741083,-0.0564 5.485694,-0.0212 8.230305,-0.0247 -4.466167,13.36322 -8.918222,26.72644 -13.384389,40.08966 -2.712861,0 -5.425722,0.004 -8.142114,0.007 -3.39725,-9.27453 -6.79097,-18.54906 -10.17411,-27.82711 -0.0459,-0.35631 -0.45508,-1.03012 -0.63853,-0.32456 -3.60891,9.36625 -7.14727,18.76425 -10.73149,28.14461 -2.59292,0.007 -5.18937,0 -7.78228,0.004 -4.36386,-13.26797 -8.49842,-26.61356 -12.98928,-39.83567 z"
         inkscape:connector-curvature="0"
         style="fill:#9f2240;stroke-width:1.07624853" />
      <path
         id="path3845"
         d="m -31.223859,161.19114 c 2.719916,-0.16933 5.457472,-0.11995 8.184444,-0.0282 -0.08467,10.05769 -0.01411,20.12244 -0.04939,30.18366 -0.01764,0.79022 0.0635,1.68981 0.6985,2.2472 0.585611,0.61736 1.49225,0.65264 2.289528,0.66675 6.709833,-0.0106 13.4196663,-0.007 20.12949948,0 0.98777772,-0.0706 1.90852772,0.51505 2.40594442,1.34761 1.0124722,1.67569 1.0583333,3.70416 1.1077222,5.60564 -9.0558054,0.0459 -18.1186661,0.0635 -27.1779991,-0.0106 -3.309056,0.06 -6.448778,-2.31775 -7.0485,-5.61269 0.04233,-0.48331 0.08819,-0.96308 0.141111,-1.44286 0.493889,1.82739 1.104194,3.76061 2.617611,5.01297 1.407583,1.11831 3.287889,1.30528 5.023555,1.35467 6.120695,0.0423 12.237861,0.007 18.3585556,0.0176 2.4341666,-0.007 4.87186098,0.1023 7.3024998,-0.13406 -0.1622778,-1.44639 -0.1411111,-2.97392 -0.762,-4.318 -0.66675,-1.20297 -2.19074992,-1.25236 -3.3972499,-1.23119 -5.8808054,0.11994 -11.7616105,-0.0247 -17.6424165,0.067 -1.42875,0.0106 -3.086805,-0.0847 -4.113389,-1.21708 -0.550333,-0.91369 -0.451555,-2.04258 -0.497416,-3.06564 0.08467,-8.2303 0.02469,-16.46414 0.02469,-24.69797 -0.01411,-1.34056 0.165806,-2.71286 -0.1905,-4.02519 -2.324805,-0.65617 -4.868333,0.45155 -7.112,-0.52917 z"
         inkscape:connector-curvature="0"
         style="fill:#882c46;stroke-width:1.07624853" />
      <path
         id="path3847"
         d="m 7.2641955,161.14175 c 2.6317222,-0.10936 5.2704995,-0.0212 7.9057495,-0.0564 0.127,10.31874 -0.01058,20.64455 0.06703,30.9633 -0.07761,1.29469 1.210028,2.26836 2.437695,2.19075 7.838722,0.0564 15.680971,-0.0459 23.523221,0.0529 -1.097139,2.31069 -2.151944,4.64608 -3.3655,6.90033 -7.4295,0.0247 -14.862527,-0.0176 -22.292027,-0.004 -1.848555,0.0282 -3.802944,-0.254 -5.309305,-1.40053 -1.9614448,-1.46402 -2.8821948,-3.96169 -2.9386392,-6.34647 -0.028222,-10.76678 0.03175,-21.53355 -0.028222,-32.30033 z"
         inkscape:connector-curvature="0"
         style="fill:#9f2240;stroke-width:1.07624853" />
      <path
         id="path3849"
         d="m 59.549389,165.12461 c 1.019528,-2.22955 3.203222,-4.06047 5.743222,-4.04636 2.360083,-0.0212 4.720166,-0.0388 7.08025,0.0106 2.501194,0.067 4.575527,1.95086 5.549194,4.15573 5.669139,11.98738 11.482917,23.90774 17.088555,35.92688 -3.093861,0.0106 -6.187722,0.0106 -9.281583,0 -1.294694,-2.54 -2.300111,-5.2458 -3.742972,-7.69408 -0.119944,-0.11642 -0.363361,-0.34572 -0.483306,-0.45861 -6.113638,-0.0917 -12.227277,0.007 -18.340916,-0.0423 -2.688166,0.0353 -5.376333,-0.0706 -8.053916,0.17991 l 0.165805,0.31045 c -1.075972,2.6035 -2.423583,5.09058 -3.531305,7.67997 -3.129139,0.0776 -6.258278,0.0282 -9.387417,0.0247 5.715,-12.02266 11.465278,-24.03122 17.194389,-36.04683 z"
         inkscape:connector-curvature="0"
         style="fill:#9f2240;stroke-width:1.07624853" />
      <path
         id="path3851"
         d="m -115.70708,161.68856 c 1.89089,-0.48331 3.90172,-0.48331 5.79614,-0.0247 -1.93322,0.0565 -3.86292,-0.007 -5.79614,0.0247 z"
         inkscape:connector-curvature="0"
         style="fill:#fcc8d6;stroke-width:1.07624853" />
      <path
         id="path3853"
         d="m -74.111053,163.03617 c 1.785056,-1.44639 4.155722,-1.88031 6.399389,-1.85914 10.498667,0.007 21.000861,-0.0106 31.503055,0.0106 -0.243417,1.98261 -0.47625,4.05695 -1.520472,5.81025 -0.426861,0.74789 -1.227667,1.28058 -2.113139,1.18886 -8.822972,0.007 -17.645944,-0.0141 -26.465388,0.004 -1.157111,-0.0847 -2.345973,0.75494 -2.38125,1.9685 -0.08114,2.32833 -0.0071,4.66372 -0.0247,6.99558 7.665861,0.004 15.331722,-0.004 22.994055,0.004 0.03175,2.32481 -0.0071,4.65314 0.02822,6.98147 -7.676444,0.0847 -15.352888,-0.007 -23.025805,0.0459 0.03528,2.73756 -0.07056,5.47511 0.04233,8.20914 0.0635,1.2065 1.30175,1.88736 2.409472,1.81328 8.801805,0.0318 17.610666,-0.0141 26.412472,-0.007 0.913694,-0.06 1.848555,0.27164 2.409472,1.016 1.291166,1.70039 1.404055,3.937 1.467555,5.98664 -10.216444,0.0988 -20.436416,-0.0423 -30.65286,0.0388 -2.282472,0.0247 -4.706056,-0.19403 -6.642806,-1.51695 -2.384777,-1.59808 -3.640666,-4.51908 -3.644194,-7.33425 0,-7.64469 0.0035,-15.28938 0,-22.93408 -0.01764,-2.40241 0.910167,-4.87891 2.804583,-6.42055 z"
         inkscape:connector-curvature="0"
         style="fill:#9f2240;stroke-width:1.07624853" />
      <path
         id="path3855"
         d="m -30.931054,161.38164 c 2.243667,0.98072 4.787195,-0.127 7.112,0.52917 0.356306,1.31233 0.176389,2.68463 0.1905,4.02519 0,8.23383 0.05997,16.46767 -0.02469,24.69797 0.04586,1.02306 -0.05292,2.15195 0.497416,3.06564 1.026584,1.13242 2.684639,1.22767 4.113389,1.21708 5.880806,-0.0917 11.7616111,0.0529 17.6424165,-0.067 1.20649998,-0.0212 2.7304999,0.0282 3.3972499,1.23119 0.6208889,1.34408 0.5997222,2.87161 0.762,4.318 -2.43063882,0.23636 -4.8683332,0.127 -7.3024998,0.13406 -6.1206946,-0.0106 -12.2378606,0.0247 -18.3585556,-0.0176 -1.735666,-0.0494 -3.615972,-0.23636 -5.023555,-1.35467 -1.513417,-1.25236 -2.123722,-3.18558 -2.617611,-5.01297 -0.05292,0.47978 -0.09878,0.95955 -0.141111,1.44286 -0.236361,-1.04422 -0.324556,-2.11314 -0.299861,-3.17853 0.04939,-10.34344 -0.05997,-20.69042 0.05292,-31.03033 z"
         inkscape:connector-curvature="0"
         style="fill:#9f2240;stroke-width:1.07624853" />
      <path
         id="path3857"
         d="m 66.202778,169.65075 c 0.567972,-1.21356 1.996722,-2.10256 3.33375,-1.60161 0.874888,0.22578 1.382888,1.02658 1.770944,1.778 3.019778,5.78555 5.616222,11.77925 8.417277,17.67064 -4.928305,-0.20814 -9.870722,-0.0282 -14.802555,-0.0847 -2.388305,0.0282 -4.780139,-0.0741 -7.164916,0.0635 2.734027,-5.97958 5.415139,-11.99092 8.4455,-17.82586 z"
         inkscape:connector-curvature="0"
         style="fill:#ffffff;stroke-width:1.07624853" />
      <path
         id="path3859"
         d="m 57.757278,187.47661 c 2.384777,-0.13758 4.776611,-0.0353 7.164916,-0.0635 4.931833,0.0564 9.87425,-0.12347 14.802555,0.0847 -0.850194,0.51152 -1.869722,0.32455 -2.808111,0.35983 -5.870222,0.0353 -11.743972,0.0635 -17.610666,0.0353 -0.560916,0.0353 -1.065389,-0.17639 -1.548694,-0.41628 z"
         inkscape:connector-curvature="0"
         style="fill:#852e42;stroke-width:1.07624853" />
      <path
         id="path3861"
         d="m 55.107917,193.15633 c 2.677583,-0.25047 5.36575,-0.14464 8.053916,-0.17991 6.113639,0.0494 12.227278,-0.0494 18.340916,0.0423 0.119945,0.11289 0.363362,0.34219 0.483306,0.45861 -8.904111,0.0317 -17.81175,0.0635 -26.712333,-0.0106 z"
         inkscape:connector-curvature="0"
         style="fill:#7c3245;stroke-width:1.07624853" />
      <path
         id="path3863"
         d="m -99.839135,209.96619 c 2.480027,-2.05669 5.954888,-2.10255 9.002888,-1.79211 2.624667,0.26459 5.30225,1.76742 6.152445,4.39561 0.927805,2.89278 0.92075,6.24417 -0.440973,9.00289 -1.241777,2.46239 -4.09575,3.39372 -6.663972,3.63714 h -2.631722 c -1.4605,-0.18344 -2.949222,-0.4445 -4.2545,-1.15711 -2.176641,-1.09361 -3.302001,-3.52072 -3.478391,-5.85964 -0.26811,-2.8575 -0.004,-6.21947 2.314225,-8.22678 z"
         inkscape:connector-curvature="0"
         style="fill:#972642;stroke-width:1.07624853" />
      <path
         id="path3865"
         d="m -40.463109,209.06661 c 3.217333,-1.7145 7.133167,-1.12536 10.459861,-0.0282 -0.0882,0.56797 -0.179917,1.13947 -0.282222,1.70744 -2.515306,-0.85725 -5.252861,-1.3723 -7.884583,-0.77258 -1.217084,0.3175 -2.621139,1.1183 -2.709334,2.51883 -0.155222,0.97014 0.652639,1.72509 1.485195,2.04611 2.741083,1.0795 5.916083,0.83609 8.470194,2.4377 1.964972,1.21708 2.021417,4.1275 0.673805,5.83141 -1.192388,1.5875 -3.227916,2.14842 -5.104694,2.40242 h -2.271889 c -1.799166,-0.19756 -3.541889,-0.73025 -5.199944,-1.44639 0.03881,-0.60678 0.09172,-1.21355 0.172861,-1.81328 2.688167,1.3335 5.834944,2.04611 8.787694,1.22767 1.347611,-0.35631 2.726972,-1.41464 2.755195,-2.921 0.112889,-0.93133 -0.599722,-1.69333 -1.397,-2.04611 -2.906889,-1.31586 -6.477,-0.86783 -9.076972,-2.90689 -1.989667,-1.72508 -1.072445,-5.12233 1.121833,-6.23711 z"
         inkscape:connector-curvature="0"
         style="fill:#952743;stroke-width:1.07624853" />
      <path
         id="path3867"
         d="m -23.836693,209.10894 c 3.203222,-1.778 7.136695,-1.15358 10.481028,-0.10936 -0.05645,0.57503 -0.105833,1.15359 -0.172861,1.73214 -2.568222,-0.81492 -5.341056,-1.38289 -8.015111,-0.74083 -1.210028,0.32103 -2.529417,1.15005 -2.656417,2.5153 -0.137583,1.02659 0.765528,1.78859 1.647472,2.08845 2.391834,0.87136 5.023556,0.85725 7.380111,1.86266 0.924278,0.39512 1.802695,1.03364 2.218973,1.97556 0.712611,1.67922 0.204611,3.76061 -1.150056,4.97064 -1.167694,1.1183 -2.797528,1.52047 -4.342694,1.80622 h -2.268361 c -1.823861,-0.20108 -3.697111,-0.55386 -5.295195,-1.49931 -0.144639,-0.56797 -0.0035,-1.16063 0,-1.72861 3.090334,1.37936 6.882695,2.33539 10.050639,0.66675 1.559278,-0.71614 2.208389,-3.29141 0.525639,-4.22275 -2.903361,-1.57338 -6.593417,-1.00894 -9.316861,-3.00566 -2.116667,-1.63689 -1.305278,-5.15409 0.913694,-6.3112 z"
         inkscape:connector-curvature="0"
         style="fill:#952743;stroke-width:1.07624853" />
      <path
         id="path3869"
         d="m 3.2531123,209.40175 c 2.7199166,-1.60514 6.0818888,-1.56986 9.1051947,-1.0795 2.592916,0.41628 4.924777,2.31069 5.517444,4.92125 0.663222,2.97039 0.680861,6.39939 -1.086556,9.00994 -1.400527,2.02495 -3.954638,2.70934 -6.272388,2.95628 H 7.8780289 c -2.0143611,-0.24342 -4.1521944,-0.72319 -5.6444444,-2.19781 -1.89794436,-1.90147 -2.25424991,-4.76955 -2.10961102,-7.33072 0.0776111,-2.39536 0.97366662,-4.9918 3.12913882,-6.27944 z"
         inkscape:connector-curvature="0"
         style="fill:#972643;stroke-width:1.07624853" />
      <path
         id="path3871"
         d="m 86.258194,209.15833 c 3.217333,-1.84855 7.186083,-1.18886 10.569222,-0.16933 -0.03881,0.58208 -0.102306,1.16417 -0.183445,1.74272 -2.511777,-0.78669 -5.203472,-1.36172 -7.821083,-0.78669 -1.167694,0.28927 -2.462389,0.95602 -2.783416,2.21544 -0.3175,0.97014 0.377472,1.93675 1.255888,2.29306 2.808111,1.19591 6.131278,0.87489 8.748889,2.58233 1.929695,1.28764 1.894417,4.24392 0.469195,5.89492 -1.259417,1.53811 -3.291417,2.08491 -5.189361,2.27894 H 89.35911 c -1.855611,-0.15875 -3.637138,-0.73025 -5.341055,-1.4605 0.0635,-0.58561 0.127,-1.16417 0.194028,-1.74625 2.374194,1.03364 4.956527,1.82386 7.574138,1.42169 1.534584,-0.1905 3.337278,-0.8643 3.852334,-2.4765 0.419805,-1.04069 -0.162278,-2.25072 -1.167695,-2.68111 -2.899833,-1.37936 -6.484055,-0.91016 -9.122833,-2.90688 -1.989666,-1.64748 -1.227666,-5.03062 0.910167,-6.20184 z"
         inkscape:connector-curvature="0"
         style="fill:#952743;stroke-width:1.07624853" />
      <path
         id="path3873"
         d="m -139.66422,208.31519 c 2.57528,-0.004 5.15409,-0.0141 7.73289,0.004 1.72508,0.0388 3.57717,0.22931 4.99886,1.30528 2.7305,2.02847 2.27895,7.03086 -0.95955,8.32555 -3.15031,1.29117 -6.63223,0.52917 -9.93423,0.7867 0.0247,2.06728 0.0141,4.13808 0.0106,6.20889 -0.62442,-0.0247 -1.24884,-0.0494 -1.87325,-0.0741 0.004,-5.51744 -0.0388,-11.03488 0.0247,-16.55586 z"
         inkscape:connector-curvature="0"
         style="fill:#952742;stroke-width:1.07624853" />
      <path
         id="path3875"
         d="m -120.42725,224.8005 c 0.0776,-5.49628 0,-10.99608 0.0318,-16.49236 2.51178,0.0106 5.02003,0.004 7.52828,0.004 1.57339,0.0141 3.24203,0.12347 4.60375,0.9913 2.5012,1.48872 2.52236,5.63386 0.1517,7.25311 -0.80434,0.58561 -1.8027,0.76906 -2.74462,1.02306 1.86267,2.49766 4.0005,4.77661 5.84906,7.28486 -0.74083,0.0212 -1.48872,0.0882 -2.22603,-0.0353 -1.94733,-2.22956 -3.59833,-4.70958 -5.52097,-6.9603 -1.93322,0.0564 -3.86644,0 -5.79967,0.0529 0.0176,2.32481 0.007,4.65314 0.0106,6.97795 -0.62795,-0.0388 -1.25589,-0.06 -1.88384,-0.0988 z"
         inkscape:connector-curvature="0"
         style="fill:#942742;stroke-width:1.07624853" />
      <path
         id="path3877"
         d="m -78.739497,208.30814 c 4.515555,0.0106 9.031111,0.007 13.550194,0 0.0071,0.60678 0.01764,1.21003 0.02469,1.82033 -3.894667,0.004 -7.792861,0.0212 -11.687528,-0.007 -0.02822,1.8415 -0.0071,3.68652 -0.0071,5.52802 3.298472,-0.004 6.600472,-0.007 9.902472,0.004 -0.03528,0.55739 -0.05292,1.12183 -0.08819,1.68275 -3.27025,-0.0459 -6.5405,-0.0141 -9.807222,-0.0176 -0.09172,2.51531 -0.01764,5.03061 -0.04233,7.54592 -0.617361,-0.004 -1.23825,-0.004 -1.852084,0 0,-5.51745 -0.01411,-11.03842 0.0071,-16.55586 z"
         inkscape:connector-curvature="0"
         style="fill:#962742;stroke-width:1.07624853" />
      <path
         id="path3879"
         d="m -60.582025,208.31167 c 4.536722,-0.004 9.073444,-0.0141 13.606638,0.0106 0.0071,0.57503 0.01411,1.15358 0.0247,1.73214 -3.922889,0.0353 -7.845778,0.0212 -11.768667,0.0106 -0.02822,1.8027 -0.01764,3.60892 -0.01058,5.41514 3.2385,0.0282 6.480528,-0.0282 9.719028,0.0212 0.783166,-0.0776 0.34925,0.9913 0.557389,1.42522 -3.429,0.19403 -6.868584,-0.0776 -10.297584,0.14817 0.02117,1.98613 0.03175,3.97933 -0.01058,5.96899 4.106333,0.2152 8.226778,0.0565 12.336639,0.0917 -0.0071,0.59266 -0.03175,1.18886 -0.03175,1.78858 -4.713111,-0.13053 -9.422695,0.254 -14.12875,-0.067 0.01764,-5.51391 0.01411,-11.03136 0.0035,-16.54527 z"
         inkscape:connector-curvature="0"
         style="fill:#942844;stroke-width:1.07624853" />
      <path
         id="path3881"
         d="m -7.4572208,208.30108 c 0.6067778,-0.004 1.2135555,-0.004 1.8238611,-0.007 0.098778,5.5245 0.024694,11.05252 0.042333,16.58055 -0.6279444,0.0247 -1.2523611,0.0564 -1.87325,0.0811 -0.010583,-5.55272 -0.028222,-11.10192 0.00706,-16.65464 z"
         inkscape:connector-curvature="0"
         style="fill:#972742;stroke-width:1.07624853" />
      <path
         id="path3883"
         d="m 23.57664,208.30814 c 0.596194,0 1.195916,0.004 1.795638,0.0106 4.321528,4.60728 8.727723,9.13695 13.045722,13.74775 -0.04586,-4.58611 -0.05997,-9.17575 -0.02117,-13.76186 0.550333,0.0212 1.104194,0.0459 1.661583,0.0776 -0.03528,5.48217 -0.04233,10.96433 0.0035,16.45003 -0.465667,-0.0706 -1.058333,0.16228 -1.425222,-0.18697 -4.483806,-4.56495 -8.851195,-9.25336 -13.356167,-13.80067 0.02117,4.66019 -0.01764,9.31686 0.02822,13.97705 -0.578555,0.0282 -1.157111,0.0635 -1.728611,0.10231 -0.0071,-5.54214 0,-11.08075 -0.0035,-16.61583 z"
         inkscape:connector-curvature="0"
         style="fill:#922843;stroke-width:1.07624853" />
      <path
         id="path3885"
         d="m 52.920695,208.29403 c 0.694972,0.0106 1.393472,0.0212 2.091972,0.0388 2.942166,5.51745 5.944305,11.00314 8.89,16.52058 -0.705556,0.0141 -1.404056,0.0459 -2.102556,0.0635 -0.694972,-1.41816 -1.446389,-2.80458 -2.162528,-4.20863 -3.820583,-0.0141 -7.644694,-0.0388 -11.461749,0.0106 -0.705556,1.3088 -1.305278,2.67758 -2.077862,3.94758 -0.504472,0.66322 -1.414638,0.27164 -2.088444,0.21872 2.931583,-5.55272 5.930194,-11.06663 8.911167,-16.59113 z"
         inkscape:connector-curvature="0"
         style="fill:#952743;stroke-width:1.07624853" />
      <path
         id="path3887"
         d="m 67.85025,208.31167 c 0.617361,0.004 1.234722,0.0106 1.859139,0.0282 -0.03175,4.90008 -0.03175,9.80369 0,14.70377 3.827638,-0.007 7.658805,-0.0141 11.489972,0.004 -0.01058,0.61031 -0.01764,1.22061 -0.02117,1.83445 -4.441472,0.13758 -8.893528,0.0847 -13.338528,-0.0388 0.02822,-5.51039 0.01058,-11.02078 0.01058,-16.53116 z"
         inkscape:connector-curvature="0"
         style="fill:#942842;stroke-width:1.07624853" />
      <path
         id="path3889"
         d="m -95.41883,209.92739 c 2.363611,-0.29986 4.991805,-0.35631 7.097889,0.9278 1.7145,1.1042 2.268361,3.25614 2.314222,5.17878 0.06703,2.08492 -0.194028,4.46969 -1.855611,5.93372 -1.848556,1.53459 -4.416778,1.55222 -6.692194,1.40759 -2.003778,-0.11995 -4.162778,-1.02306 -5.030611,-2.95981 -0.931335,-2.15547 -0.892525,-4.66019 -0.306917,-6.90386 0.543278,-2.01789 2.472972,-3.32317 4.473222,-3.58422 z"
         inkscape:connector-curvature="0"
         style="fill:#ffffff;stroke-width:1.07624853" />
      <path
         id="path3891"
         d="m 6.8902511,209.93092 c 2.3777222,-0.29634 5.0235559,-0.37042 7.1331669,0.93838 1.718027,1.10773 2.264833,3.25967 2.307166,5.18584 0.05644,2.08491 -0.204611,4.49791 -1.901472,5.93725 -1.827389,1.50636 -4.363861,1.51694 -6.6110554,1.38994 -2.0319999,-0.12347 -4.2192221,-1.04069 -5.0835276,-3.00919 -0.8960556,-2.12372 -0.8819445,-4.58611 -0.3069167,-6.7945 0.5150556,-2.03553 2.4482777,-3.37961 4.4626388,-3.64772 z"
         inkscape:connector-curvature="0"
         style="fill:#ffffff;stroke-width:1.07624853" />
      <path
         id="path3893"
         d="m -137.81919,209.98383 c 2.08139,-0.0459 4.16278,-0.0494 6.24417,-0.0141 1.38994,0.0529 2.99155,0.29986 3.89819,1.47461 0.91722,1.35114 0.85725,3.41842 -0.34572,4.57906 -1.16064,0.99483 -2.77636,1.09714 -4.23686,1.11478 -1.85561,-0.004 -3.71122,0.0388 -5.56684,-0.06 0.0212,-2.36361 0.0141,-4.72722 0.007,-7.09436 z"
         inkscape:connector-curvature="0"
         style="fill:#fffefe;stroke-width:1.07624853" />
      <path
         id="path3895"
         d="m -118.5293,209.95561 c 2.24014,0.0176 4.48028,-0.06 6.71689,0.0423 1.32644,0.0529 2.89277,0.55386 3.35491,1.94381 0.29281,1.09714 0.23284,2.44475 -0.61383,3.29847 -0.89253,0.88195 -2.21897,1.1042 -3.429,1.12536 -2.01083,0.0212 -4.02519,0 -6.03603,-0.007 -0.0141,-2.13431 -0.0212,-4.26861 0.007,-6.40292 z"
         inkscape:connector-curvature="0"
         style="fill:#fffefe;stroke-width:1.07624853" />
      <path
         id="path3897"
         d="m 49.071889,219.07844 c 1.5875,-3.16794 3.280833,-6.28297 4.903611,-9.4368 1.488722,3.18205 3.330222,6.19125 4.681361,9.43327 -3.196167,-0.0141 -6.388805,-0.0176 -9.584972,0.004 z"
         inkscape:connector-curvature="0"
         style="fill:#fffdfe;stroke-width:1.07624853" />
    </g>
  </g>
</svg>
